<?xml version="1.0" encoding="iso-8859-1"?>
<!-- Generator: Adobe Illustrator 19.0.0, SVG Export Plug-In . SVG Version: 6.00 Build 0)  -->
<svg fill="#ffffff" version="1.1" id="Capa_1" xmlns="http://www.w3.org/2000/svg" xmlns:xlink="http://www.w3.org/1999/xlink" x="0px" y="0px"
	 viewBox="0 0 384.97 384.97" style="enable-background:new 0 0 384.97 384.97;" xml:space="preserve">
<g>
	<path id="Arrow_Forward" d="M384.97,192.487c0-3.212-1.323-6.28-3.525-8.59L262.357,63.606c-4.704-4.752-12.319-4.74-17.011,0
		c-4.704,4.74-4.704,12.439,0,17.179l98.564,99.551H12.03C5.39,180.337,0,185.774,0,192.487c0,6.713,5.39,12.151,12.03,12.151
		h331.868l-98.552,99.551c-4.704,4.74-4.692,12.439,0,17.179c4.704,4.74,12.319,4.74,17.011,0l119.088-120.291
		C383.694,198.803,384.934,195.675,384.97,192.487z"/>
	<g>
	</g>
	<g>
	</g>
	<g>
	</g>
	<g>
	</g>
	<g>
	</g>
	<g>
	</g>
</g>
<g>
</g>
<g>
</g>
<g>
</g>
<g>
</g>
<g>
</g>
<g>
</g>
<g>
</g>
<g>
</g>
<g>
</g>
<g>
</g>
<g>
</g>
<g>
</g>
<g>
</g>
<g>
</g>
<g>
</g>
</svg>
