<svg fill="#FFEDD7" id="icon" height="512" viewBox="0 0 128 128" width="512" xmlns="http://www.w3.org/2000/svg"><path d="m57.882 70.054c8.718 8.718 17.262 12.254 20.339 9.176l4.229-4.23a7.454 7.454 0 0 1 10.541 0l9.487 9.487a7.454 7.454 0 0 1 0 10.541l-7.391 7.391c-6.984 6.984-27.641-2.339-47.437-22.135-9.9-9.9-16.387-19.222-20.581-27.993s-5.044-15.954-1.554-19.444l7.391-7.391a7.454 7.454 0 0 1 10.541 0l9.487 9.487a7.454 7.454 0 0 1 0 10.541l-4.229 4.229c-3.076 3.079.46 11.623 9.177 20.341z" fill="#FF81A3"/><g fill="#ef5261" transform="matrix(.707 -.707 .707 .707 -14.022 69.135)"><path d="m72.582 35.408h7.721v32.172h-7.721z"/><path d="m60.356 47.634h32.172v7.721h-32.172z"/></g></svg>